# xmcd
# 
# Track frame offsets:
#     150
#     14775
#     30850
#     45975
#     58652
#     70287
#     87470
#     100745
#     114642
#     133300
#     148397
#     165055
#     178540
#     190217
#     208172
#     224050
#     239280
#     258125
#     275750
# 
# Disc length: 3900
# 
# Revision: 1
# Processed by: cddbd v1.5.2PL0 Copyright (c) Steve Scherf et al.
# Submitted via: fre:ac v1.0.17
# 
DISCID=1f0f3a13
DTITLE=Various Artist - Line Dance Instruction Album - The Best Country Tunes
DYEAR=2001
DGENRE=Rock
TTITLE0=Van Tress - Achy Breaky Heart
TTITLE1=David M. Bellamy - Red Neck Girl
TTITLE2=Brock/Turner - Watermelon Crawl
TTITLE3=Jerry Chesnut - T-R-O-U-B-L-E
TTITLE4=Richardson - White Lightning
TTITLE5=Jackson/McBride - Chattahoochee
TTITLE6=David M. Bellamy - Reggae Cowboy
TTITLE7=Dunn - Boot Scooting' Boogie
TTITLE8=Thomas Cain/Bob DiPiero - Earthquake
TTITLE9=Vickery/Kemp - The Fireman
TTITLE10=Ripley/Richmond - Baby Likes To Rock It
TTITLE11=Elgin/Fuller - Born To Boogie
TTITLE12=Dunn - Neon Moon
TTITLE13=Daniels/DiGregorio/Crain/Hayward/Gavin - Boogie Woogie Country Fiddle Blues
TTITLE14=Howell/Seals - God Blessed Texas
TTITLE15=LeMaire/Pennington - Super Love
TTITLE16=with vocal inst. - Red Neck Girl
TTITLE17=with vocal inst. - Watermelon Crawl
TTITLE18=with vocal inst. - God Blessed Texas
EXTD=
EXTT0=
EXTT1=
EXTT2=
EXTT3=
EXTT4=
EXTT5=
EXTT6=
EXTT7=
EXTT8=
EXTT9=
EXTT10=
EXTT11=
EXTT12=
EXTT13=
EXTT14=
EXTT15=
EXTT16=
EXTT17=
EXTT18=
PLAYORDER=
